<svg xmlns="http://www.w3.org/2000/svg" xmlns:xlink="http://www.w3.org/1999/xlink" width="500" zoomAndPan="magnify" viewBox="0 0 375 374.999991" height="500" preserveAspectRatio="xMidYMid meet" version="1.0"><defs><g/></defs><rect x="-37.5" width="450" fill="#ffffff" y="-37.499999" height="449.999989" fill-opacity="1"/><rect x="-37.5" width="450" fill="#23d680" y="-37.499999" height="449.999989" fill-opacity="1"/><path stroke-linecap="butt" transform="matrix(0.747132, -0.0655289, 0.0655289, 0.747132, 75.817888, 167.231665)" fill="none" stroke-linejoin="miter" d="M 0.000681975 4.500049 L 228.990806 4.502153 " stroke="#ffffff" stroke-width="9" stroke-opacity="1" stroke-miterlimit="4"/><g fill="#ffffff" fill-opacity="1"><g transform="translate(37.514488, 214.850416)"><g><path d="M 22.046875 0.984375 C 18.273438 0.984375 14.984375 0.367188 12.171875 -0.859375 C 9.359375 -2.085938 7.160156 -3.820312 5.578125 -6.0625 C 3.992188 -8.300781 3.203125 -10.925781 3.203125 -13.9375 C 3.203125 -14.425781 3.226562 -14.957031 3.28125 -15.53125 C 3.332031 -16.101562 3.414062 -16.664062 3.53125 -17.21875 L 10.734375 -17.21875 C 10.578125 -16.445312 10.5 -15.707031 10.5 -15 C 10.5 -12.050781 11.601562 -9.617188 13.8125 -7.703125 C 16.03125 -5.796875 19.023438 -4.84375 22.796875 -4.84375 C 27.160156 -4.84375 30.488281 -5.90625 32.78125 -8.03125 C 35.082031 -10.164062 36.234375 -12.984375 36.234375 -16.484375 C 36.234375 -18.285156 35.78125 -19.769531 34.875 -20.9375 C 33.976562 -22.113281 32.765625 -23.097656 31.234375 -23.890625 C 29.703125 -24.691406 27.992188 -25.40625 26.109375 -26.03125 C 24.222656 -26.65625 22.328125 -27.320312 20.421875 -28.03125 C 16.804688 -29.34375 14.109375 -31.132812 12.328125 -33.40625 C 10.554688 -35.675781 9.671875 -38.257812 9.671875 -41.15625 C 9.671875 -44.601562 10.515625 -47.609375 12.203125 -50.171875 C 13.898438 -52.742188 16.28125 -54.753906 19.34375 -56.203125 C 22.40625 -57.648438 25.957031 -58.375 30 -58.375 C 33.226562 -58.375 36.082031 -57.8125 38.5625 -56.6875 C 41.050781 -55.570312 42.976562 -54 44.34375 -51.96875 C 45.71875 -49.945312 46.40625 -47.628906 46.40625 -45.015625 C 46.40625 -44.191406 46.320312 -43.34375 46.15625 -42.46875 L 39.03125 -42.46875 C 39.03125 -42.738281 39.039062 -42.992188 39.0625 -43.234375 C 39.09375 -43.484375 39.109375 -43.75 39.109375 -44.03125 C 39.109375 -46.15625 38.273438 -48.09375 36.609375 -49.84375 C 34.941406 -51.59375 32.410156 -52.46875 29.015625 -52.46875 C 25.410156 -52.46875 22.5 -51.5 20.28125 -49.5625 C 18.070312 -47.625 16.96875 -45.175781 16.96875 -42.21875 C 16.96875 -40.144531 17.632812 -38.492188 18.96875 -37.265625 C 20.3125 -36.035156 22.101562 -35.007812 24.34375 -34.1875 C 26.582031 -33.363281 29.046875 -32.460938 31.734375 -31.484375 C 35.066406 -30.222656 37.878906 -28.457031 40.171875 -26.1875 C 42.460938 -23.925781 43.609375 -20.960938 43.609375 -17.296875 C 43.609375 -13.640625 42.707031 -10.441406 40.90625 -7.703125 C 39.101562 -4.972656 36.585938 -2.84375 33.359375 -1.3125 C 30.140625 0.21875 26.367188 0.984375 22.046875 0.984375 Z M 22.046875 0.984375 "/></g></g></g><g fill="#ffffff" fill-opacity="1"><g transform="translate(85.963958, 214.850416)"><g><path d="M 2.125 0 L 9.265625 -40.671875 L 15.5 -40.671875 L 14.671875 -33.28125 C 16.421875 -35.90625 18.660156 -37.953125 21.390625 -39.421875 C 24.128906 -40.898438 27.054688 -41.640625 30.171875 -41.640625 C 34.210938 -41.640625 37.40625 -40.503906 39.75 -38.234375 C 42.101562 -35.972656 43.28125 -32.738281 43.28125 -28.53125 C 43.28125 -27.757812 43.238281 -26.976562 43.15625 -26.1875 C 43.082031 -25.394531 42.960938 -24.59375 42.796875 -23.78125 L 38.609375 0 L 31.734375 0 L 35.75 -23.03125 C 35.851562 -23.75 35.945312 -24.4375 36.03125 -25.09375 C 36.113281 -25.75 36.15625 -26.375 36.15625 -26.96875 C 36.15625 -32.820312 33.285156 -35.75 27.546875 -35.75 C 24.097656 -35.75 21.019531 -34.546875 18.3125 -32.140625 C 15.613281 -29.734375 13.800781 -26.289062 12.875 -21.8125 L 9.015625 0 Z M 2.125 0 "/></g></g></g><g fill="#ffffff" fill-opacity="1"><g transform="translate(132.937816, 214.850416)"><g><path d="M 15.25 0.984375 C 12.1875 0.984375 9.695312 0.476562 7.78125 -0.53125 C 5.875 -1.539062 4.453125 -2.878906 3.515625 -4.546875 C 2.585938 -6.210938 2.125 -8.003906 2.125 -9.921875 C 2.125 -12.921875 2.972656 -15.515625 4.671875 -17.703125 C 6.367188 -19.890625 8.734375 -21.570312 11.765625 -22.75 C 14.796875 -23.925781 18.332031 -24.515625 22.375 -24.515625 L 33.28125 -24.515625 L 33.375 -25 C 33.53125 -25.9375 33.609375 -26.867188 33.609375 -27.796875 C 33.609375 -30.421875 32.859375 -32.414062 31.359375 -33.78125 C 29.859375 -35.144531 27.769531 -35.828125 25.09375 -35.828125 C 22.46875 -35.828125 20.03125 -35.15625 17.78125 -33.8125 C 15.539062 -32.476562 13.988281 -30.523438 13.125 -27.953125 L 5.984375 -27.953125 C 6.859375 -30.910156 8.289062 -33.398438 10.28125 -35.421875 C 12.28125 -37.441406 14.644531 -38.984375 17.375 -40.046875 C 20.113281 -41.109375 22.984375 -41.640625 25.984375 -41.640625 C 30.847656 -41.640625 34.492188 -40.492188 36.921875 -38.203125 C 39.359375 -35.910156 40.578125 -32.796875 40.578125 -28.859375 C 40.578125 -28.253906 40.550781 -27.625 40.5 -26.96875 C 40.445312 -26.3125 40.363281 -25.65625 40.25 -25 L 35.90625 0 L 29.671875 0 L 30.5 -7.21875 C 28.96875 -4.914062 26.957031 -2.972656 24.46875 -1.390625 C 21.976562 0.191406 18.90625 0.984375 15.25 0.984375 Z M 17.296875 -4.84375 C 19.921875 -4.84375 22.285156 -5.523438 24.390625 -6.890625 C 26.492188 -8.253906 28.226562 -10.03125 29.59375 -12.21875 C 30.957031 -14.40625 31.859375 -16.703125 32.296875 -19.109375 L 32.296875 -19.1875 L 21.96875 -19.1875 C 18.09375 -19.1875 15.046875 -18.429688 12.828125 -16.921875 C 10.617188 -15.421875 9.515625 -13.359375 9.515625 -10.734375 C 9.515625 -8.878906 10.179688 -7.429688 11.515625 -6.390625 C 12.859375 -5.359375 14.785156 -4.84375 17.296875 -4.84375 Z M 17.296875 -4.84375 "/></g></g></g><g fill="#ffffff" fill-opacity="1"><g transform="translate(177.124391, 214.850416)"><g><path d="M -1.140625 18.03125 L 9.265625 -40.671875 L 15.65625 -40.671875 L 15 -33.9375 C 16.695312 -36.070312 18.785156 -37.890625 21.265625 -39.390625 C 23.753906 -40.890625 26.832031 -41.640625 30.5 -41.640625 C 34 -41.640625 37.003906 -40.875 39.515625 -39.34375 C 42.023438 -37.820312 43.953125 -35.75 45.296875 -33.125 C 46.640625 -30.5 47.3125 -27.519531 47.3125 -24.1875 C 47.3125 -19.425781 46.285156 -15.144531 44.234375 -11.34375 C 42.179688 -7.550781 39.378906 -4.546875 35.828125 -2.328125 C 32.273438 -0.117188 28.257812 0.984375 23.78125 0.984375 C 21.59375 0.984375 19.582031 0.601562 17.75 -0.15625 C 15.914062 -0.925781 14.359375 -1.910156 13.078125 -3.109375 C 11.796875 -4.316406 10.851562 -5.578125 10.25 -6.890625 L 5.734375 18.03125 Z M 24.1875 -5 C 27.300781 -5 30.0625 -5.789062 32.46875 -7.375 C 34.875 -8.957031 36.757812 -11.113281 38.125 -13.84375 C 39.488281 -16.582031 40.171875 -19.703125 40.171875 -23.203125 C 40.171875 -26.804688 39.144531 -29.78125 37.09375 -32.125 C 35.050781 -34.476562 32.28125 -35.65625 28.78125 -35.65625 C 25.664062 -35.65625 22.875 -34.835938 20.40625 -33.203125 C 17.945312 -31.566406 16.007812 -29.335938 14.59375 -26.515625 C 13.175781 -23.703125 12.46875 -20.578125 12.46875 -17.140625 C 12.46875 -13.472656 13.53125 -10.53125 15.65625 -8.3125 C 17.789062 -6.101562 20.632812 -5 24.1875 -5 Z M 24.1875 -5 "/></g></g></g><g fill="#ffffff" fill-opacity="1"><g transform="translate(227.951251, 214.850416)"><g><path d="M 2.546875 0 L 12.625 -57.390625 L 19.515625 -57.390625 L 9.421875 0 Z M 2.546875 0 "/></g></g></g><g fill="#ffffff" fill-opacity="1"><g transform="translate(247.052308, 214.850416)"><g><path d="M 2.125 0 L 9.265625 -40.671875 L 15.5 -40.671875 L 14.671875 -33.28125 C 16.421875 -35.90625 18.660156 -37.953125 21.390625 -39.421875 C 24.128906 -40.898438 27.054688 -41.640625 30.171875 -41.640625 C 34.210938 -41.640625 37.40625 -40.503906 39.75 -38.234375 C 42.101562 -35.972656 43.28125 -32.738281 43.28125 -28.53125 C 43.28125 -27.757812 43.238281 -26.976562 43.15625 -26.1875 C 43.082031 -25.394531 42.960938 -24.59375 42.796875 -23.78125 L 38.609375 0 L 31.734375 0 L 35.75 -23.03125 C 35.851562 -23.75 35.945312 -24.4375 36.03125 -25.09375 C 36.113281 -25.75 36.15625 -26.375 36.15625 -26.96875 C 36.15625 -32.820312 33.285156 -35.75 27.546875 -35.75 C 24.097656 -35.75 21.019531 -34.546875 18.3125 -32.140625 C 15.613281 -29.734375 13.800781 -26.289062 12.875 -21.8125 L 9.015625 0 Z M 2.125 0 "/></g></g></g><g fill="#ffffff" fill-opacity="1"><g transform="translate(294.026152, 214.850416)"><g><path d="M 14.015625 0 L 5.171875 -40.671875 L 12.296875 -40.671875 L 19.265625 -6.5625 L 38.125 -40.671875 L 45.421875 -40.671875 L 22.140625 0 Z M 14.015625 0 "/></g></g></g><path stroke-linecap="butt" transform="matrix(0.419395, -0.621778, 0.621778, 0.419395, 75.990739, 154.847906)" fill="none" stroke-linejoin="miter" d="M 0.0000661372 3.501574 L 19.17216 3.498983 " stroke="#ffffff" stroke-width="7" stroke-opacity="1" stroke-miterlimit="4"/><path stroke-linecap="butt" transform="matrix(0, 0.75, -0.75, 0, 68.487686, 138.684454)" fill="none" stroke-linejoin="miter" d="M -0.00114712 3.499207 L 19.170729 3.499207 " stroke="#ffffff" stroke-width="7" stroke-opacity="1" stroke-miterlimit="4"/><path stroke-linecap="butt" transform="matrix(0.419382, 0.621786, -0.621786, 0.419382, 47.503895, 144.404727)" fill="none" stroke-linejoin="miter" d="M -0.00126693 3.49837 L 19.170826 3.500585 " stroke="#ffffff" stroke-width="7" stroke-opacity="1" stroke-miterlimit="4"/></svg>