<svg xmlns="http://www.w3.org/2000/svg" xmlns:xlink="http://www.w3.org/1999/xlink" width="500" zoomAndPan="magnify" viewBox="0 0 375 374.999991" height="500" preserveAspectRatio="xMidYMid meet" version="1.0"><defs><g/><clipPath id="dd772e16d0"><path d="M 187.5 0 C 83.945312 0 0 83.945312 0 187.5 C 0 291.054688 83.945312 375 187.5 375 C 291.054688 375 375 291.054688 375 187.5 C 375 83.945312 291.054688 0 187.5 0 Z M 187.5 0 " clip-rule="nonzero"/></clipPath></defs><g clip-path="url(#dd772e16d0)"><rect x="-37.5" width="450" fill="#23d680" y="-37.499999" height="449.999989" fill-opacity="1"/></g><g fill="#ffffff" fill-opacity="1"><g transform="translate(117.476973, 278.833619)"><g><path d="M 59.359375 2.640625 C 49.210938 2.640625 40.347656 0.988281 32.765625 -2.3125 C 25.191406 -5.625 19.269531 -10.296875 15 -16.328125 C 10.738281 -22.359375 8.609375 -29.421875 8.609375 -37.515625 C 8.609375 -38.835938 8.679688 -40.269531 8.828125 -41.8125 C 8.972656 -43.363281 9.191406 -44.875 9.484375 -46.34375 L 28.90625 -46.34375 C 28.46875 -44.28125 28.25 -42.296875 28.25 -40.390625 C 28.25 -32.441406 31.226562 -25.890625 37.1875 -20.734375 C 43.144531 -15.585938 51.195312 -13.015625 61.34375 -13.015625 C 73.113281 -13.015625 82.085938 -15.882812 88.265625 -21.625 C 94.441406 -27.363281 97.53125 -34.941406 97.53125 -44.359375 C 97.53125 -49.210938 96.316406 -53.21875 93.890625 -56.375 C 91.460938 -59.539062 88.1875 -62.191406 84.0625 -64.328125 C 79.945312 -66.460938 75.351562 -68.375 70.28125 -70.0625 C 65.207031 -71.75 60.097656 -73.550781 54.953125 -75.46875 C 45.242188 -79 38 -83.816406 33.21875 -89.921875 C 28.4375 -96.023438 26.046875 -102.976562 26.046875 -110.78125 C 26.046875 -120.039062 28.320312 -128.128906 32.875 -135.046875 C 37.4375 -141.960938 43.835938 -147.367188 52.078125 -151.265625 C 60.316406 -155.171875 69.878906 -157.125 80.765625 -157.125 C 89.441406 -157.125 97.125 -155.613281 103.8125 -152.59375 C 110.507812 -149.582031 115.695312 -145.351562 119.375 -139.90625 C 123.0625 -134.457031 124.90625 -128.207031 124.90625 -121.15625 C 124.90625 -118.945312 124.679688 -116.664062 124.234375 -114.3125 L 105.046875 -114.3125 C 105.046875 -115.039062 105.082031 -115.734375 105.15625 -116.390625 C 105.226562 -117.054688 105.265625 -117.757812 105.265625 -118.5 C 105.265625 -124.238281 103.019531 -129.460938 98.53125 -134.171875 C 94.039062 -138.878906 87.238281 -141.234375 78.125 -141.234375 C 68.40625 -141.234375 60.566406 -138.617188 54.609375 -133.390625 C 48.648438 -128.171875 45.671875 -121.585938 45.671875 -113.640625 C 45.671875 -108.054688 47.472656 -103.609375 51.078125 -100.296875 C 54.679688 -96.984375 59.5 -94.222656 65.53125 -92.015625 C 71.570312 -89.804688 78.195312 -87.378906 85.40625 -84.734375 C 94.375 -81.347656 101.945312 -76.601562 108.125 -70.5 C 114.300781 -64.394531 117.390625 -56.414062 117.390625 -46.5625 C 117.390625 -36.707031 114.960938 -28.097656 110.109375 -20.734375 C 105.253906 -13.378906 98.488281 -7.644531 89.8125 -3.53125 C 81.132812 0.582031 70.984375 2.640625 59.359375 2.640625 Z M 59.359375 2.640625 "/></g></g></g><path stroke-linecap="butt" transform="matrix(1.128639, -1.673276, 1.673276, 1.128639, 224.166669, 116.341192)" fill="none" stroke-linejoin="miter" d="M -0.000548794 3.500551 L 19.170235 3.500449 " stroke="#ffffff" stroke-width="7" stroke-opacity="1" stroke-miterlimit="4"/><path stroke-linecap="butt" transform="matrix(0, 2.018335, -2.018335, 0, 203.975118, 72.843497)" fill="none" stroke-linejoin="miter" d="M 0.000125442 3.50039 L 19.170085 3.50039 " stroke="#ffffff" stroke-width="7" stroke-opacity="1" stroke-miterlimit="4"/><path stroke-linecap="butt" transform="matrix(1.128606, 1.673298, -1.673298, 1.128606, 147.505351, 88.237429)" fill="none" stroke-linejoin="miter" d="M -0.000123218 3.500138 L 19.17066 3.499864 " stroke="#ffffff" stroke-width="7" stroke-opacity="1" stroke-miterlimit="4"/></svg>