<svg xmlns="http://www.w3.org/2000/svg" xmlns:xlink="http://www.w3.org/1999/xlink" width="500" zoomAndPan="magnify" viewBox="0 0 375 187.499995" height="250" preserveAspectRatio="xMidYMid meet" version="1.0"><defs><g/></defs><g fill="#ffffff" fill-opacity="1"><g transform="translate(37.913387, 120.776742)"><g><path d="M 22 0.984375 C 18.238281 0.984375 14.953125 0.367188 12.140625 -0.859375 C 9.335938 -2.085938 7.144531 -3.816406 5.5625 -6.046875 C 3.976562 -8.285156 3.1875 -10.90625 3.1875 -13.90625 C 3.1875 -14.394531 3.210938 -14.925781 3.265625 -15.5 C 3.328125 -16.070312 3.410156 -16.628906 3.515625 -17.171875 L 10.71875 -17.171875 C 10.550781 -16.410156 10.46875 -15.675781 10.46875 -14.96875 C 10.46875 -12.019531 11.570312 -9.59375 13.78125 -7.6875 C 15.988281 -5.78125 18.972656 -4.828125 22.734375 -4.828125 C 27.085938 -4.828125 30.410156 -5.890625 32.703125 -8.015625 C 34.992188 -10.140625 36.140625 -12.945312 36.140625 -16.4375 C 36.140625 -18.238281 35.6875 -19.722656 34.78125 -20.890625 C 33.882812 -22.066406 32.671875 -23.046875 31.140625 -23.828125 C 29.617188 -24.617188 27.914062 -25.328125 26.03125 -25.953125 C 24.15625 -26.585938 22.265625 -27.257812 20.359375 -27.96875 C 16.765625 -29.269531 14.078125 -31.050781 12.296875 -33.3125 C 10.523438 -35.582031 9.640625 -38.160156 9.640625 -41.046875 C 9.640625 -44.484375 10.484375 -47.484375 12.171875 -50.046875 C 13.867188 -52.609375 16.242188 -54.609375 19.296875 -56.046875 C 22.347656 -57.492188 25.890625 -58.21875 29.921875 -58.21875 C 33.140625 -58.21875 35.988281 -57.65625 38.46875 -56.53125 C 40.945312 -55.414062 42.867188 -53.847656 44.234375 -51.828125 C 45.597656 -49.816406 46.28125 -47.503906 46.28125 -44.890625 C 46.28125 -44.066406 46.195312 -43.222656 46.03125 -42.359375 L 38.921875 -42.359375 C 38.921875 -42.628906 38.929688 -42.882812 38.953125 -43.125 C 38.984375 -43.375 39 -43.632812 39 -43.90625 C 39 -46.03125 38.164062 -47.960938 36.5 -49.703125 C 34.84375 -51.453125 32.320312 -52.328125 28.9375 -52.328125 C 25.34375 -52.328125 22.441406 -51.359375 20.234375 -49.421875 C 18.023438 -47.492188 16.921875 -45.054688 16.921875 -42.109375 C 16.921875 -40.035156 17.585938 -38.382812 18.921875 -37.15625 C 20.265625 -35.9375 22.050781 -34.914062 24.28125 -34.09375 C 26.519531 -33.28125 28.972656 -32.378906 31.640625 -31.390625 C 34.960938 -30.140625 37.769531 -28.382812 40.0625 -26.125 C 42.351562 -23.863281 43.5 -20.90625 43.5 -17.25 C 43.5 -13.601562 42.597656 -10.414062 40.796875 -7.6875 C 39.003906 -4.957031 36.5 -2.828125 33.28125 -1.296875 C 30.0625 0.222656 26.300781 0.984375 22 0.984375 Z M 22 0.984375 "/></g></g></g><g fill="#ffffff" fill-opacity="1"><g transform="translate(86.234001, 120.776742)"><g><path d="M 2.125 0 L 9.234375 -40.5625 L 15.453125 -40.5625 L 14.640625 -33.203125 C 16.378906 -35.816406 18.609375 -37.859375 21.328125 -39.328125 C 24.054688 -40.796875 26.976562 -41.53125 30.09375 -41.53125 C 34.125 -41.53125 37.3125 -40.398438 39.65625 -38.140625 C 42 -35.878906 43.171875 -32.648438 43.171875 -28.453125 C 43.171875 -27.691406 43.128906 -26.914062 43.046875 -26.125 C 42.960938 -25.332031 42.84375 -24.53125 42.6875 -23.71875 L 38.515625 0 L 31.640625 0 L 35.65625 -22.96875 C 35.757812 -23.6875 35.851562 -24.367188 35.9375 -25.015625 C 36.019531 -25.671875 36.0625 -26.300781 36.0625 -26.90625 C 36.0625 -32.738281 33.195312 -35.65625 27.46875 -35.65625 C 24.039062 -35.65625 20.976562 -34.453125 18.28125 -32.046875 C 15.582031 -29.648438 13.769531 -26.21875 12.84375 -21.75 L 9 0 Z M 2.125 0 "/></g></g></g><g fill="#ffffff" fill-opacity="1"><g transform="translate(133.082929, 120.776742)"><g><path d="M 15.203125 0.984375 C 12.148438 0.984375 9.671875 0.476562 7.765625 -0.53125 C 5.859375 -1.539062 4.441406 -2.875 3.515625 -4.53125 C 2.585938 -6.195312 2.125 -7.984375 2.125 -9.890625 C 2.125 -12.890625 2.96875 -15.476562 4.65625 -17.65625 C 6.351562 -19.84375 8.710938 -21.519531 11.734375 -22.6875 C 14.753906 -23.863281 18.285156 -24.453125 22.328125 -24.453125 L 33.203125 -24.453125 L 33.28125 -24.9375 C 33.445312 -25.863281 33.53125 -26.789062 33.53125 -27.71875 C 33.53125 -30.332031 32.78125 -32.320312 31.28125 -33.6875 C 29.78125 -35.050781 27.691406 -35.734375 25.015625 -35.734375 C 22.398438 -35.734375 19.972656 -35.0625 17.734375 -33.71875 C 15.503906 -32.382812 13.953125 -30.4375 13.078125 -27.875 L 5.96875 -27.875 C 6.84375 -30.820312 8.273438 -33.300781 10.265625 -35.3125 C 12.253906 -37.332031 14.609375 -38.875 17.328125 -39.9375 C 20.054688 -41 22.921875 -41.53125 25.921875 -41.53125 C 30.773438 -41.53125 34.410156 -40.382812 36.828125 -38.09375 C 39.253906 -35.8125 40.46875 -32.707031 40.46875 -28.78125 C 40.46875 -28.175781 40.441406 -27.546875 40.390625 -26.890625 C 40.335938 -26.242188 40.253906 -25.59375 40.140625 -24.9375 L 35.8125 0 L 29.59375 0 L 30.421875 -7.203125 C 28.890625 -4.910156 26.882812 -2.972656 24.40625 -1.390625 C 21.925781 0.191406 18.859375 0.984375 15.203125 0.984375 Z M 17.25 -4.828125 C 19.863281 -4.828125 22.21875 -5.503906 24.3125 -6.859375 C 26.414062 -8.222656 28.148438 -9.992188 29.515625 -12.171875 C 30.878906 -14.359375 31.78125 -16.648438 32.21875 -19.046875 L 32.21875 -19.140625 L 21.90625 -19.140625 C 18.039062 -19.140625 15.003906 -18.390625 12.796875 -16.890625 C 10.585938 -15.390625 9.484375 -13.332031 9.484375 -10.71875 C 9.484375 -8.863281 10.148438 -7.414062 11.484375 -6.375 C 12.816406 -5.34375 14.738281 -4.828125 17.25 -4.828125 Z M 17.25 -4.828125 "/></g></g></g><g fill="#ffffff" fill-opacity="1"><g transform="translate(177.151986, 120.776742)"><g><path d="M -1.140625 17.984375 L 9.234375 -40.5625 L 15.625 -40.5625 L 14.96875 -33.84375 C 16.65625 -35.976562 18.738281 -37.789062 21.21875 -39.28125 C 23.695312 -40.78125 26.765625 -41.53125 30.421875 -41.53125 C 33.910156 -41.53125 36.90625 -40.765625 39.40625 -39.234375 C 41.914062 -37.710938 43.835938 -35.644531 45.171875 -33.03125 C 46.503906 -30.414062 47.171875 -27.445312 47.171875 -24.125 C 47.171875 -19.375 46.148438 -15.101562 44.109375 -11.3125 C 42.066406 -7.53125 39.273438 -4.535156 35.734375 -2.328125 C 32.191406 -0.117188 28.1875 0.984375 23.71875 0.984375 C 21.53125 0.984375 19.523438 0.601562 17.703125 -0.15625 C 15.878906 -0.925781 14.328125 -1.910156 13.046875 -3.109375 C 11.765625 -4.304688 10.820312 -5.5625 10.21875 -6.875 L 5.71875 17.984375 Z M 24.125 -4.984375 C 27.226562 -4.984375 29.976562 -5.773438 32.375 -7.359375 C 34.78125 -8.941406 36.660156 -11.09375 38.015625 -13.8125 C 39.378906 -16.539062 40.0625 -19.648438 40.0625 -23.140625 C 40.0625 -26.734375 39.039062 -29.703125 37 -32.046875 C 34.957031 -34.390625 32.191406 -35.5625 28.703125 -35.5625 C 25.597656 -35.5625 22.816406 -34.742188 20.359375 -33.109375 C 17.910156 -31.472656 15.972656 -29.25 14.546875 -26.4375 C 13.128906 -23.632812 12.421875 -20.519531 12.421875 -17.09375 C 12.421875 -13.4375 13.484375 -10.503906 15.609375 -8.296875 C 17.742188 -6.085938 20.582031 -4.984375 24.125 -4.984375 Z M 24.125 -4.984375 "/></g></g></g><g fill="#ffffff" fill-opacity="1"><g transform="translate(227.843668, 120.776742)"><g><path d="M 2.53125 0 L 12.59375 -57.234375 L 19.453125 -57.234375 L 9.40625 0 Z M 2.53125 0 "/></g></g></g><g fill="#ffffff" fill-opacity="1"><g transform="translate(246.893924, 120.776742)"><g><path d="M 2.125 0 L 9.234375 -40.5625 L 15.453125 -40.5625 L 14.640625 -33.203125 C 16.378906 -35.816406 18.609375 -37.859375 21.328125 -39.328125 C 24.054688 -40.796875 26.976562 -41.53125 30.09375 -41.53125 C 34.125 -41.53125 37.3125 -40.398438 39.65625 -38.140625 C 42 -35.878906 43.171875 -32.648438 43.171875 -28.453125 C 43.171875 -27.691406 43.128906 -26.914062 43.046875 -26.125 C 42.960938 -25.332031 42.84375 -24.53125 42.6875 -23.71875 L 38.515625 0 L 31.640625 0 L 35.65625 -22.96875 C 35.757812 -23.6875 35.851562 -24.367188 35.9375 -25.015625 C 36.019531 -25.671875 36.0625 -26.300781 36.0625 -26.90625 C 36.0625 -32.738281 33.195312 -35.65625 27.46875 -35.65625 C 24.039062 -35.65625 20.976562 -34.453125 18.28125 -32.046875 C 15.582031 -29.648438 13.769531 -26.21875 12.84375 -21.75 L 9 0 Z M 2.125 0 "/></g></g></g><g fill="#ffffff" fill-opacity="1"><g transform="translate(293.742838, 120.776742)"><g><path d="M 13.984375 0 L 5.15625 -40.5625 L 12.265625 -40.5625 L 19.21875 -6.546875 L 38.015625 -40.5625 L 45.296875 -40.5625 L 22.078125 0 Z M 13.984375 0 "/></g></g></g><path stroke-linecap="butt" transform="matrix(0.920689, -0.0856832, 0.0856832, 0.920689, 76.285925, 73.267035)" fill="none" stroke-linejoin="miter" d="M 0.000246942 3.498759 L 185.136785 3.498556 " stroke="#ffffff" stroke-width="7" stroke-opacity="1" stroke-miterlimit="4"/><path stroke-linecap="butt" transform="matrix(0.517067, -0.766584, 0.766584, 0.517067, 76.158728, 60.849592)" fill="none" stroke-linejoin="miter" d="M -0.00226592 2.999638 L 15.508437 2.998924 " stroke="#ffffff" stroke-width="6" stroke-opacity="1" stroke-miterlimit="4"/><path stroke-linecap="butt" transform="matrix(0.00000000161385, 0.924667, -0.924667, 0.00000000161385, 68.961881, 44.813276)" fill="none" stroke-linejoin="miter" d="M -0.000838782 3.00041 L 15.507272 3.00041 " stroke="#ffffff" stroke-width="6" stroke-opacity="1" stroke-miterlimit="4"/><path stroke-linecap="butt" transform="matrix(0.517052, 0.766594, -0.766594, 0.517052, 48.006288, 50.43141)" fill="none" stroke-linejoin="miter" d="M 0.00193879 3.000622 L 15.509139 2.998669 " stroke="#ffffff" stroke-width="6" stroke-opacity="1" stroke-miterlimit="4"/></svg>